<svg width="124" height="124" viewBox="0 0 124 124" fill="none" xmlns="http://www.w3.org/2000/svg">
<g clip-path="url(#clip0_50_695)">
<path d="M5.42505 108.5V94.0333C5.42505 91.1917 6.15699 88.5222 7.62088 86.025C9.08477 83.5278 11.1084 81.6333 13.6917 80.3417C18.0834 78.1028 23.0348 76.2083 28.5459 74.6583C34.057 73.1083 40.1278 72.3333 46.7584 72.3333C53.3889 72.3333 59.4598 73.1083 64.9709 74.6583C70.482 76.2083 75.4334 78.1028 79.825 80.3417C82.4084 81.6333 84.432 83.5278 85.8959 86.025C87.3598 88.5222 88.0917 91.1917 88.0917 94.0333V108.5H5.42505ZM15.7584 98.1667H77.7584V94.0333C77.7584 93.0861 77.5216 92.225 77.048 91.45C76.5743 90.675 75.9501 90.0722 75.175 89.6417C72.0751 88.0917 68.0924 86.5417 63.2271 84.9917C58.3619 83.4417 52.8723 82.6667 46.7584 82.6667C40.6445 82.6667 35.1549 83.4417 30.2896 84.9917C25.4244 86.5417 21.4417 88.0917 18.3417 89.6417C17.5667 90.0722 16.9424 90.675 16.4688 91.45C15.9952 92.225 15.7584 93.0861 15.7584 94.0333V98.1667ZM46.7584 67.1667C41.075 67.1667 36.2098 65.1431 32.1625 61.0958C28.1153 57.0486 26.0917 52.1833 26.0917 46.5H24.8C24.025 46.5 23.4007 46.2632 22.9271 45.7896C22.4535 45.316 22.2167 44.6917 22.2167 43.9167C22.2167 43.1417 22.4535 42.5174 22.9271 42.0437C23.4007 41.5701 24.025 41.3333 24.8 41.3333H26.0917C26.0917 37.4583 27.0389 33.9708 28.9334 30.8708C30.8278 27.7708 33.325 25.3167 36.425 23.5083V28.4167C36.425 29.1917 36.6619 29.816 37.1355 30.2896C37.6091 30.7632 38.2334 31 39.0084 31C39.7834 31 40.4077 30.7632 40.8813 30.2896C41.3549 29.816 41.5917 29.1917 41.5917 28.4167V21.4417C42.3667 21.1833 43.1848 20.9896 44.0459 20.8604C44.907 20.7312 45.8112 20.6667 46.7584 20.6667C47.7056 20.6667 48.6098 20.7312 49.4709 20.8604C50.332 20.9896 51.15 21.1833 51.925 21.4417V28.4167C51.925 29.1917 52.1619 29.816 52.6355 30.2896C53.1091 30.7632 53.7334 31 54.5084 31C55.2834 31 55.9077 30.7632 56.3813 30.2896C56.8549 29.816 57.0917 29.1917 57.0917 28.4167V23.5083C60.1917 25.3167 62.6889 27.7708 64.5834 30.8708C66.4778 33.9708 67.425 37.4583 67.425 41.3333H68.7167C69.4917 41.3333 70.116 41.5701 70.5896 42.0437C71.0632 42.5174 71.3 43.1417 71.3 43.9167C71.3 44.6917 71.0632 45.316 70.5896 45.7896C70.116 46.2632 69.4917 46.5 68.7167 46.5H67.425C67.425 52.1833 65.4014 57.0486 61.3542 61.0958C57.307 65.1431 52.4417 67.1667 46.7584 67.1667ZM46.7584 56.8333C49.6 56.8333 52.0327 55.8215 54.0563 53.7979C56.0799 51.7743 57.0917 49.3417 57.0917 46.5H36.425C36.425 49.3417 37.4369 51.7743 39.4605 53.7979C41.4841 55.8215 43.9167 56.8333 46.7584 56.8333ZM85.5084 77.5L84.7334 73.625C84.2167 73.4528 83.7216 73.259 83.248 73.0437C82.7744 72.8285 82.3223 72.5056 81.8917 72.075L78.275 73.3667L75.6917 68.7167L78.5334 66.1333V63.0333L75.6917 60.45L78.275 55.8L81.8917 57.0917C82.2362 56.7472 82.6667 56.4458 83.1834 56.1875C83.7 55.9292 84.2167 55.7139 84.7334 55.5417L85.5084 51.6667H90.675L91.45 55.5417C91.9667 55.7139 92.4834 55.9292 93 56.1875C93.5167 56.4458 93.9473 56.7472 94.2917 57.0917L97.9084 55.8L100.492 60.45L97.65 63.0333V66.1333L100.492 68.7167L97.9084 73.3667L94.2917 72.075C93.8612 72.5056 93.4091 72.8285 92.9355 73.0437C92.4619 73.259 91.9667 73.4528 91.45 73.625L90.675 77.5H85.5084ZM88.0917 68.4583C89.125 68.4583 90.0292 68.0708 90.8042 67.2958C91.5792 66.5208 91.9667 65.6167 91.9667 64.5833C91.9667 63.55 91.5792 62.6458 90.8042 61.8708C90.0292 61.0958 89.125 60.7083 88.0917 60.7083C87.0584 60.7083 86.1542 61.0958 85.3792 61.8708C84.6042 62.6458 84.2167 63.55 84.2167 64.5833C84.2167 65.6167 84.6042 66.5208 85.3792 67.2958C86.1542 68.0708 87.0584 68.4583 88.0917 68.4583ZM97.3917 51.6667L96.3584 46.2417C95.5834 45.9833 94.873 45.6604 94.2271 45.2729C93.5813 44.8854 93 44.4333 92.4834 43.9167L87.0584 45.725L83.4417 39.525L87.8334 35.65C87.6612 35.2194 87.575 34.875 87.575 34.6167V32.55C87.575 32.2917 87.6612 31.9472 87.8334 31.5167L83.4417 27.6417L87.0584 21.4417L92.4834 23.25C93 22.7333 93.5813 22.2812 94.2271 21.8937C94.873 21.5062 95.5834 21.1833 96.3584 20.925L97.3917 15.5H104.625L105.658 20.925C106.433 21.1833 107.144 21.5062 107.79 21.8937C108.435 22.2812 109.017 22.7333 109.533 23.25L114.958 21.4417L118.575 27.6417L114.183 31.5167C114.356 31.9472 114.442 32.2917 114.442 32.55V34.6167C114.442 34.875 114.356 35.2194 114.183 35.65L118.575 39.525L114.958 45.725L109.533 43.9167C109.017 44.4333 108.435 44.8854 107.79 45.2729C107.144 45.6604 106.433 45.9833 105.658 46.2417L104.625 51.6667H97.3917ZM101.008 40.0417C102.817 40.0417 104.345 39.4174 105.594 38.1687C106.842 36.9201 107.467 35.3917 107.467 33.5833C107.467 31.775 106.842 30.2465 105.594 28.9979C104.345 27.7493 102.817 27.125 101.008 27.125C99.2 27.125 97.6716 27.7493 96.423 28.9979C95.1744 30.2465 94.55 31.775 94.55 33.5833C94.55 35.3917 95.1744 36.9201 96.423 38.1687C97.6716 39.4174 99.2 40.0417 101.008 40.0417Z" fill="#1A1A1A"/>
</g>
<defs>
<clipPath id="clip0_50_695">
<rect width="124" height="124" fill="white"/>
</clipPath>
</defs>
</svg>
