<svg width="20" height="20" viewBox="0 0 20 20" fill="none" xmlns="http://www.w3.org/2000/svg">
<g id="icons8-facebook-novo-24 1">
<path id="Vector" d="M9.99984 1.66667C5.40733 1.66667 1.6665 5.4075 1.6665 10C1.6665 14.5925 5.40733 18.3333 9.99984 18.3333C14.5923 18.3333 18.3332 14.5925 18.3332 10C18.3332 5.4075 14.5923 1.66667 9.99984 1.66667ZM9.99984 3.33333C13.6916 3.33333 16.6665 6.30823 16.6665 10C16.6665 13.3454 14.2209 16.0942 11.0155 16.582V11.9873H12.9556L13.2599 10.0163H11.0155V8.9388C11.0155 8.11964 11.2823 7.39258 12.049 7.39258H13.2795V5.6722C13.0628 5.64303 12.6055 5.57943 11.7414 5.57943C9.93637 5.57943 8.87842 6.53276 8.87842 8.70443V10.0163H7.02295V11.9873H8.87842V16.5658C5.72508 16.034 3.33317 13.3085 3.33317 10C3.33317 6.30823 6.30807 3.33333 9.99984 3.33333Z" fill="black"/>
</g>
</svg>
