<svg width="124" height="124" viewBox="0 0 124 124" fill="none" xmlns="http://www.w3.org/2000/svg">
<path d="M25.8333 108.5C22.9917 108.5 20.559 107.488 18.5354 105.465C16.5118 103.441 15.5 101.008 15.5 98.1667V25.8333C15.5 22.9917 16.5118 20.559 18.5354 18.5354C20.559 16.5118 22.9917 15.5 25.8333 15.5H98.1667C101.008 15.5 103.441 16.5118 105.465 18.5354C107.488 20.559 108.5 22.9917 108.5 25.8333V98.1667C108.5 101.008 107.488 103.441 105.465 105.465C103.441 107.488 101.008 108.5 98.1667 108.5H25.8333ZM25.8333 98.1667H98.1667V25.8333H25.8333V98.1667ZM31 87.8333H93L73.625 62L58.125 82.6667L46.5 67.1667L31 87.8333Z" fill="#1A1A1A"/>
</svg>
