<svg width="20" height="20" viewBox="0 0 20 20" fill="none" xmlns="http://www.w3.org/2000/svg">
<g id="icons8-linkedin 1">
<path id="Vector" d="M4.16667 2.5C3.24583 2.5 2.5 3.24583 2.5 4.16667V15.8333C2.5 16.7542 3.24583 17.5 4.16667 17.5H15.8333C16.7542 17.5 17.5 16.7542 17.5 15.8333V4.16667C17.5 3.24583 16.7542 2.5 15.8333 2.5H4.16667ZM4.16667 4.16667H15.8333V15.8333H4.16667V4.16667ZM6.48275 5.26367C5.76858 5.26367 5.34017 5.69298 5.34017 6.26465C5.34017 6.83631 5.76863 7.264 6.41113 7.264C7.1253 7.264 7.55371 6.83631 7.55371 6.26465C7.55371 5.69298 7.12525 5.26367 6.48275 5.26367ZM5.39714 8.33333V14.1667H7.5V8.33333H5.39714ZM9.23503 8.33333V14.1667H11.3379V10.9782C11.3379 10.029 12.0151 9.89258 12.2184 9.89258C12.4218 9.89258 12.9655 10.0965 12.9655 10.9782V14.1667H15V10.9782C15 9.14736 14.1864 8.33333 13.1689 8.33333C12.1514 8.33333 11.6087 8.67213 11.3379 9.14713V8.33333H9.23503Z" fill="black"/>
</g>
</svg>
