<svg width="124" height="124" viewBox="0 0 124 124" fill="none" xmlns="http://www.w3.org/2000/svg">
<path d="M25.8333 108.5C22.9917 108.5 20.559 107.488 18.5354 105.465C16.5118 103.441 15.5 101.008 15.5 98.1667V46.5C15.5 37.8889 18.5139 30.5694 24.5417 24.5417C30.5694 18.5139 37.8889 15.5 46.5 15.5H77.5C86.1111 15.5 93.4305 18.5139 99.4583 24.5417C105.486 30.5694 108.5 37.8889 108.5 46.5V98.1667C108.5 101.008 107.488 103.441 105.465 105.465C103.441 107.488 101.008 108.5 98.1667 108.5H25.8333ZM25.8333 98.1667H98.1667V46.5C98.1667 40.8167 96.1431 35.9514 92.0958 31.9042C88.0486 27.8569 83.1833 25.8333 77.5 25.8333H46.5C40.8167 25.8333 35.9514 27.8569 31.9042 31.9042C27.8569 35.9514 25.8333 40.8167 25.8333 46.5V98.1667ZM46.5 62C43.6583 62 41.2257 60.9882 39.2021 58.9646C37.1785 56.941 36.1667 54.5083 36.1667 51.6667C36.1667 48.825 37.1785 46.3924 39.2021 44.3687C41.2257 42.3451 43.6583 41.3333 46.5 41.3333C49.3417 41.3333 51.7743 42.3451 53.7979 44.3687C55.8215 46.3924 56.8333 48.825 56.8333 51.6667C56.8333 54.5083 55.8215 56.941 53.7979 58.9646C51.7743 60.9882 49.3417 62 46.5 62ZM77.5 62C74.6583 62 72.2257 60.9882 70.2021 58.9646C68.1785 56.941 67.1667 54.5083 67.1667 51.6667C67.1667 48.825 68.1785 46.3924 70.2021 44.3687C72.2257 42.3451 74.6583 41.3333 77.5 41.3333C80.3417 41.3333 82.7743 42.3451 84.7979 44.3687C86.8215 46.3924 87.8333 48.825 87.8333 51.6667C87.8333 54.5083 86.8215 56.941 84.7979 58.9646C82.7743 60.9882 80.3417 62 77.5 62ZM36.1667 98.1667V87.8333C36.1667 84.9917 37.1785 82.559 39.2021 80.5354C41.2257 78.5118 43.6583 77.5 46.5 77.5H77.5C80.3417 77.5 82.7743 78.5118 84.7979 80.5354C86.8215 82.559 87.8333 84.9917 87.8333 87.8333V98.1667H77.5V87.8333H67.1667V98.1667H56.8333V87.8333H46.5V98.1667H36.1667Z" fill="#1A1A1A"/>
</svg>
