<svg width="215" height="30" viewBox="0 0 215 30" fill="none" xmlns="http://www.w3.org/2000/svg">
<path d="M9.70312 29.4688C8.04948 29.4688 6.67578 29.319 5.58203 29.0195C4.5013 28.7201 3.62891 28.349 2.96484 27.9062C2.3138 27.4505 1.8125 27.0013 1.46094 26.5586C1.34375 26.3893 1.23958 26.2266 1.14844 26.0703C1.05729 25.9141 0.992188 25.7383 0.953125 25.543C0.901042 25.2826 0.848958 24.944 0.796875 24.5273C0.744792 24.0977 0.738281 23.6029 0.777344 23.043C0.790365 22.8086 0.835938 22.6458 0.914062 22.5547C1.00521 22.4505 1.15495 22.3724 1.36328 22.3203C1.74089 22.2292 2.22917 22.151 2.82812 22.0859C3.4401 22.0078 3.8763 21.9688 4.13672 21.9688C4.41016 21.9688 4.63151 22.0208 4.80078 22.125C4.97005 22.2292 5.17188 22.4049 5.40625 22.6523C5.66667 22.9258 6.11589 23.2773 6.75391 23.707C7.39193 24.1237 8.375 24.332 9.70312 24.332C10.9792 24.332 11.9427 24.0651 12.5938 23.5312C13.2448 22.9974 13.5703 22.2552 13.5703 21.3047C13.5703 20.7969 13.4141 20.3216 13.1016 19.8789C12.8021 19.4232 12.2487 18.974 11.4414 18.5312C10.6341 18.0755 9.48177 17.6003 7.98438 17.1055C5.51042 16.2721 3.72656 15.237 2.63281 14C1.53906 12.763 0.992188 11.0443 0.992188 8.84375C0.992188 7.02083 1.4349 5.4974 2.32031 4.27344C3.20573 3.04948 4.42969 2.125 5.99219 1.5C7.55469 0.875 9.35807 0.5625 11.4023 0.5625C12.9779 0.5625 14.2799 0.751302 15.3086 1.12891C16.3503 1.49349 17.1576 1.91016 17.7305 2.37891C18.3034 2.83464 18.6745 3.20573 18.8438 3.49219C18.9479 3.66146 19.013 3.79167 19.0391 3.88281C19.0781 3.96094 19.1042 4.07161 19.1172 4.21484C19.1562 4.61849 19.1693 5.06771 19.1562 5.5625C19.1432 6.05729 19.0977 6.61719 19.0195 7.24219C18.9805 7.45052 18.9089 7.59375 18.8047 7.67188C18.7135 7.73698 18.5703 7.76953 18.375 7.76953C17.112 7.79557 16.1354 7.73047 15.4453 7.57422C15.1719 7.50911 14.9896 7.44401 14.8984 7.37891C14.8073 7.3138 14.6901 7.20964 14.5469 7.06641C14.3385 6.81901 14.0065 6.53255 13.5508 6.20703C13.1081 5.86849 12.3919 5.69922 11.4023 5.69922C10.0352 5.69922 9.0651 6.01172 8.49219 6.63672C7.91927 7.2487 7.63281 7.9388 7.63281 8.70703C7.63281 9.61849 8.05599 10.3346 8.90234 10.8555C9.7487 11.3633 11.0833 11.9427 12.9062 12.5938C14.4297 13.1276 15.7383 13.707 16.832 14.332C17.9258 14.957 18.7591 15.7578 19.332 16.7344C19.918 17.7109 20.2109 19 20.2109 20.6016C20.2109 22.5938 19.7487 24.2474 18.8242 25.5625C17.9128 26.8776 16.6628 27.8607 15.0742 28.5117C13.4987 29.1497 11.7083 29.4688 9.70312 29.4688ZM29.918 29C28.5768 29 27.5547 28.8307 26.8516 28.4922C26.1615 28.1536 25.6927 27.6003 25.4453 26.832C25.2109 26.0638 25.0938 25.0417 25.0938 23.7656V6.22656C25.0938 4.92448 25.2109 3.89583 25.4453 3.14062C25.6927 2.3724 26.1615 1.82552 26.8516 1.5C27.5547 1.16146 28.5768 0.992188 29.918 0.992188H39.0977C39.4102 0.992188 39.6445 1.04427 39.8008 1.14844C40.1393 1.38281 40.4909 1.66276 40.8555 1.98828C41.2201 2.3138 41.6042 2.70443 42.0078 3.16016C42.138 3.32943 42.2031 3.46615 42.2031 3.57031C42.2031 3.6875 42.138 3.81771 42.0078 3.96094C41.6042 4.41667 41.2201 4.80729 40.8555 5.13281C40.4909 5.45833 40.1393 5.73828 39.8008 5.97266C39.6185 6.07682 39.3841 6.12891 39.0977 6.12891H33.6289C32.7695 6.12891 32.1836 6.3112 31.8711 6.67578C31.5586 7.04036 31.4023 7.66536 31.4023 8.55078V12.3398H38.4141C38.7266 12.3398 38.9609 12.3919 39.1172 12.4961C39.4557 12.7305 39.8073 13.0104 40.1719 13.3359C40.5365 13.6615 40.9206 14.0521 41.3242 14.5078C41.4544 14.6771 41.5195 14.8138 41.5195 14.918C41.5195 15.0352 41.4544 15.1654 41.3242 15.3086C40.9206 15.7643 40.5365 16.1549 40.1719 16.4805C39.8073 16.806 39.4557 17.0859 39.1172 17.3203C38.9349 17.4245 38.7005 17.4766 38.4141 17.4766H31.4023V21.4219C31.4023 22.2943 31.5586 22.9193 31.8711 23.2969C32.1836 23.6745 32.7695 23.8633 33.6289 23.8633H39.7422C40.0547 23.8633 40.2891 23.9154 40.4453 24.0195C40.7839 24.2539 41.1354 24.5339 41.5 24.8594C41.8646 25.1849 42.2487 25.5755 42.6523 26.0312C42.7826 26.2005 42.8477 26.3372 42.8477 26.4414C42.8477 26.5586 42.7826 26.6888 42.6523 26.832C42.2487 27.2878 41.8646 27.6784 41.5 28.0039C41.1354 28.3294 40.7839 28.6094 40.4453 28.8438C40.263 28.9479 40.0286 29 39.7422 29H29.918ZM57.5742 19.6445C57.2357 19.6445 56.9492 19.5599 56.7148 19.3906C56.4674 19.2214 56.1745 18.9805 55.8359 18.668C55.4974 18.3555 55.1198 17.9714 54.7031 17.5156C54.5469 17.3333 54.4688 17.1706 54.4688 17.0273C54.4688 16.8841 54.5469 16.7214 54.7031 16.5391C55.5104 15.6276 56.2461 14.957 56.9102 14.5273C57.0664 14.4232 57.2878 14.3711 57.5742 14.3711C58.4596 14.3711 59.2214 14.0391 59.8594 13.375C60.5104 12.7109 60.8229 11.6367 60.7969 10.1523C60.7839 8.55078 60.3867 7.43099 59.6055 6.79297C58.8372 6.15495 57.7826 5.83594 56.4414 5.83594H55.5039C54.6445 5.83594 54.0586 6.01823 53.7461 6.38281C53.4336 6.7474 53.2773 7.3724 53.2773 8.25781V27.9648C53.2773 28.3555 53.1927 28.6289 53.0234 28.7852C52.8672 28.9284 52.5938 29 52.2031 29H48.043C47.6523 29 47.3724 28.9284 47.2031 28.7852C47.0469 28.6289 46.9688 28.3555 46.9688 27.9648V6.22656C46.9688 4.92448 47.0859 3.89583 47.3203 3.14062C47.5677 2.3724 48.0365 1.82552 48.7266 1.5C49.4297 1.16146 50.4518 0.992188 51.793 0.992188H56.4414C60.1784 0.992188 62.9453 1.72786 64.7422 3.19922C66.5391 4.65755 67.4375 6.89714 67.4375 9.91797C67.4375 12.1836 66.9622 14.0326 66.0117 15.4648C65.0742 16.8971 63.8503 17.9518 62.3398 18.6289C60.8424 19.306 59.2539 19.6445 57.5742 19.6445ZM76.3633 29C75.0221 29 74 28.8307 73.2969 28.4922C72.6068 28.1536 72.138 27.6003 71.8906 26.832C71.6562 26.0638 71.5391 25.0417 71.5391 23.7656V6.22656C71.5391 4.92448 71.6562 3.89583 71.8906 3.14062C72.138 2.3724 72.6068 1.82552 73.2969 1.5C74 1.16146 75.0221 0.992188 76.3633 0.992188H85.543C85.8555 0.992188 86.0898 1.04427 86.2461 1.14844C86.5846 1.38281 86.9362 1.66276 87.3008 1.98828C87.6654 2.3138 88.0495 2.70443 88.4531 3.16016C88.5833 3.32943 88.6484 3.46615 88.6484 3.57031C88.6484 3.6875 88.5833 3.81771 88.4531 3.96094C88.0495 4.41667 87.6654 4.80729 87.3008 5.13281C86.9362 5.45833 86.5846 5.73828 86.2461 5.97266C86.0638 6.07682 85.8294 6.12891 85.543 6.12891H80.0742C79.2148 6.12891 78.6289 6.3112 78.3164 6.67578C78.0039 7.04036 77.8477 7.66536 77.8477 8.55078V12.3398H84.8594C85.1719 12.3398 85.4062 12.3919 85.5625 12.4961C85.901 12.7305 86.2526 13.0104 86.6172 13.3359C86.9818 13.6615 87.3659 14.0521 87.7695 14.5078C87.8997 14.6771 87.9648 14.8138 87.9648 14.918C87.9648 15.0352 87.8997 15.1654 87.7695 15.3086C87.3659 15.7643 86.9818 16.1549 86.6172 16.4805C86.2526 16.806 85.901 17.0859 85.5625 17.3203C85.3802 17.4245 85.1458 17.4766 84.8594 17.4766H77.8477V21.4219C77.8477 22.2943 78.0039 22.9193 78.3164 23.2969C78.6289 23.6745 79.2148 23.8633 80.0742 23.8633H86.1875C86.5 23.8633 86.7344 23.9154 86.8906 24.0195C87.2292 24.2539 87.5807 24.5339 87.9453 24.8594C88.3099 25.1849 88.694 25.5755 89.0977 26.0312C89.2279 26.2005 89.293 26.3372 89.293 26.4414C89.293 26.5586 89.2279 26.6888 89.0977 26.832C88.694 27.2878 88.3099 27.6784 87.9453 28.0039C87.5807 28.3294 87.2292 28.6094 86.8906 28.8438C86.7083 28.9479 86.474 29 86.1875 29H76.3633ZM99.7227 27.9648C99.7227 28.3555 99.638 28.6289 99.4688 28.7852C99.3125 28.9284 99.0391 29 98.6484 29H94.4883C94.0977 29 93.8177 28.9284 93.6484 28.7852C93.4922 28.6289 93.4141 28.3555 93.4141 27.9648V6.22656C93.4141 4.92448 93.5312 3.89583 93.7656 3.14062C94.013 2.3724 94.4818 1.82552 95.1719 1.5C95.875 1.16146 96.8971 0.992188 98.2383 0.992188H103.414C110.211 0.992188 113.609 3.60286 113.609 8.82422C113.609 10.4128 113.342 11.7148 112.809 12.7305C112.275 13.7461 111.611 14.5404 110.816 15.1133C110.022 15.6732 109.241 16.0964 108.473 16.3828V16.4805C109.345 17.0534 110.172 17.8086 110.953 18.7461C111.747 19.6706 112.464 20.6797 113.102 21.7734C113.74 22.8542 114.28 23.9284 114.723 24.9961C115.165 26.0508 115.471 26.9948 115.641 27.8281C115.719 28.2188 115.719 28.5117 115.641 28.707C115.576 28.9023 115.354 29 114.977 29H110.465C110.126 29 109.827 28.9284 109.566 28.7852C109.319 28.6419 109.091 28.3099 108.883 27.7891C107.893 25.3021 106.754 23.2773 105.465 21.7148C104.176 20.1393 102.932 18.8763 101.734 17.9258C100.966 17.3138 100.582 16.8776 100.582 16.6172C100.582 16.4089 100.706 16.1224 100.953 15.7578C101.109 15.5365 101.337 15.2695 101.637 14.957C101.936 14.6445 102.197 14.4102 102.418 14.2539C102.639 14.0977 102.815 14 102.945 13.9609C103.089 13.9219 103.303 13.9023 103.59 13.9023C104.553 13.9023 105.354 13.5703 105.992 12.9062C106.643 12.2422 106.969 11.194 106.969 9.76172C106.969 8.40755 106.624 7.41797 105.934 6.79297C105.257 6.15495 104.319 5.83594 103.121 5.83594H101.949C101.09 5.83594 100.504 6.01823 100.191 6.38281C99.8789 6.7474 99.7227 7.3724 99.7227 8.25781V27.9648ZM131.031 27.9648C131.031 28.3555 130.947 28.6289 130.777 28.7852C130.621 28.9284 130.348 29 129.957 29H125.797C125.406 29 125.126 28.9284 124.957 28.7852C124.801 28.6289 124.723 28.3555 124.723 27.9648V6.12891H118.902C118.59 6.12891 118.355 6.07682 118.199 5.97266C117.861 5.73828 117.509 5.45833 117.145 5.13281C116.793 4.80729 116.409 4.41667 115.992 3.96094C115.862 3.79167 115.797 3.65495 115.797 3.55078C115.797 3.43359 115.862 3.30339 115.992 3.16016C116.409 2.70443 116.793 2.3138 117.145 1.98828C117.509 1.66276 117.861 1.38281 118.199 1.14844C118.382 1.04427 118.616 0.992188 118.902 0.992188H136.871C137.184 0.992188 137.418 1.04427 137.574 1.14844C137.913 1.38281 138.264 1.66276 138.629 1.98828C138.993 2.3138 139.378 2.70443 139.781 3.16016C139.911 3.32943 139.977 3.46615 139.977 3.57031C139.977 3.6875 139.911 3.81771 139.781 3.96094C139.378 4.41667 138.993 4.80729 138.629 5.13281C138.264 5.45833 137.913 5.73828 137.574 5.97266C137.392 6.07682 137.158 6.12891 136.871 6.12891H131.031V27.9648ZM147.926 29C146.585 29 145.562 28.8307 144.859 28.4922C144.169 28.1536 143.701 27.6003 143.453 26.832C143.219 26.0638 143.102 25.0417 143.102 23.7656V6.22656C143.102 4.92448 143.219 3.89583 143.453 3.14062C143.701 2.3724 144.169 1.82552 144.859 1.5C145.562 1.16146 146.585 0.992188 147.926 0.992188H157.105C157.418 0.992188 157.652 1.04427 157.809 1.14844C158.147 1.38281 158.499 1.66276 158.863 1.98828C159.228 2.3138 159.612 2.70443 160.016 3.16016C160.146 3.32943 160.211 3.46615 160.211 3.57031C160.211 3.6875 160.146 3.81771 160.016 3.96094C159.612 4.41667 159.228 4.80729 158.863 5.13281C158.499 5.45833 158.147 5.73828 157.809 5.97266C157.626 6.07682 157.392 6.12891 157.105 6.12891H151.637C150.777 6.12891 150.191 6.3112 149.879 6.67578C149.566 7.04036 149.41 7.66536 149.41 8.55078V12.3398H156.422C156.734 12.3398 156.969 12.3919 157.125 12.4961C157.464 12.7305 157.815 13.0104 158.18 13.3359C158.544 13.6615 158.928 14.0521 159.332 14.5078C159.462 14.6771 159.527 14.8138 159.527 14.918C159.527 15.0352 159.462 15.1654 159.332 15.3086C158.928 15.7643 158.544 16.1549 158.18 16.4805C157.815 16.806 157.464 17.0859 157.125 17.3203C156.943 17.4245 156.708 17.4766 156.422 17.4766H149.41V21.4219C149.41 22.2943 149.566 22.9193 149.879 23.2969C150.191 23.6745 150.777 23.8633 151.637 23.8633H157.75C158.062 23.8633 158.297 23.9154 158.453 24.0195C158.792 24.2539 159.143 24.5339 159.508 24.8594C159.872 25.1849 160.257 25.5755 160.66 26.0312C160.79 26.2005 160.855 26.3372 160.855 26.4414C160.855 26.5586 160.79 26.6888 160.66 26.832C160.257 27.2878 159.872 27.6784 159.508 28.0039C159.143 28.3294 158.792 28.6094 158.453 28.8438C158.271 28.9479 158.036 29 157.75 29H147.926ZM176.539 24.2148C177.49 24.2148 178.232 24.1172 178.766 23.9219C179.312 23.7266 179.736 23.4857 180.035 23.1992C180.335 22.9128 180.595 22.6263 180.816 22.3398C181.025 22.0794 181.194 21.8841 181.324 21.7539C181.467 21.6237 181.663 21.5326 181.91 21.4805C182.118 21.4154 182.451 21.3763 182.906 21.3633C183.375 21.3372 183.837 21.3242 184.293 21.3242C184.762 21.3242 185.087 21.3372 185.27 21.3633C185.543 21.3763 185.732 21.4284 185.836 21.5195C185.94 21.6107 186.005 21.806 186.031 22.1055C186.07 22.5221 186.09 23.0169 186.09 23.5898C186.103 24.1628 186.096 24.6576 186.07 25.0742C186.057 25.2044 186.031 25.3151 185.992 25.4062C185.966 25.4974 185.901 25.6341 185.797 25.8164C185.667 26.0247 185.413 26.3307 185.035 26.7344C184.658 27.125 184.104 27.5352 183.375 27.9648C182.646 28.3815 181.702 28.7396 180.543 29.0391C179.397 29.3385 177.984 29.4883 176.305 29.4883C174.508 29.4883 172.828 29.2604 171.266 28.8047C169.703 28.3359 168.329 27.5547 167.145 26.4609C165.973 25.3672 165.055 23.8893 164.391 22.0273C163.74 20.1654 163.414 17.8411 163.414 15.0547C163.414 11.9557 163.948 9.32552 165.016 7.16406C166.096 4.98958 167.626 3.33594 169.605 2.20312C171.585 1.07031 173.928 0.503906 176.637 0.503906C178.538 0.503906 180.061 0.699219 181.207 1.08984C182.366 1.48047 183.245 1.94271 183.844 2.47656C184.443 2.9974 184.866 3.45312 185.113 3.84375C185.204 3.98698 185.27 4.11719 185.309 4.23438C185.348 4.33854 185.374 4.50781 185.387 4.74219C185.426 5.05469 185.432 5.51042 185.406 6.10938C185.393 6.70833 185.348 7.23568 185.27 7.69141C185.217 7.97786 185.133 8.16667 185.016 8.25781C184.964 8.3099 184.872 8.35547 184.742 8.39453C184.612 8.43359 184.417 8.45312 184.156 8.45312C183.74 8.45312 183.271 8.4401 182.75 8.41406C182.229 8.375 181.839 8.33594 181.578 8.29688C181.266 8.24479 181.038 8.17318 180.895 8.08203C180.751 7.97786 180.608 7.82161 180.465 7.61328C180.23 7.27474 179.827 6.88411 179.254 6.44141C178.681 5.9987 177.737 5.77734 176.422 5.77734C174.573 5.77734 173.049 6.49349 171.852 7.92578C170.654 9.34505 170.055 11.6497 170.055 14.8398C170.055 18.0169 170.68 20.3737 171.93 21.9102C173.193 23.4466 174.729 24.2148 176.539 24.2148ZM208.316 4.11719C208.316 3.73958 208.382 3.45312 208.512 3.25781C209.098 2.39844 209.918 1.49349 210.973 0.542969C211.168 0.386719 211.337 0.308594 211.48 0.308594C211.637 0.308594 211.799 0.386719 211.969 0.542969C212.542 1.03776 213.023 1.51302 213.414 1.96875C213.805 2.41146 214.143 2.84115 214.43 3.25781C214.56 3.46615 214.625 3.7526 214.625 4.11719V27.9648C214.625 28.3555 214.54 28.6289 214.371 28.7852C214.215 28.9284 213.941 29 213.551 29H209.391C209 29 208.72 28.9284 208.551 28.7852C208.395 28.6289 208.316 28.3555 208.316 27.9648V17.5938H196.715V27.9648C196.715 28.3555 196.63 28.6289 196.461 28.7852C196.305 28.9284 196.031 29 195.641 29H191.48C191.09 29 190.81 28.9284 190.641 28.7852C190.484 28.6289 190.406 28.3555 190.406 27.9648V2.02734C190.406 1.63672 190.484 1.36979 190.641 1.22656C190.81 1.07031 191.09 0.992188 191.48 0.992188H195.641C196.031 0.992188 196.305 1.07031 196.461 1.22656C196.63 1.36979 196.715 1.63672 196.715 2.02734V12.1641H208.316V4.11719Z" fill="#1A1A1A"/>
</svg>
