<svg width="20" height="20" viewBox="0 0 20 20" fill="none" xmlns="http://www.w3.org/2000/svg">
<g id="icons8-twitterx 1">
<path id="Vector" d="M5 2.5C3.62919 2.5 2.5 3.62919 2.5 5V15C2.5 16.3708 3.62919 17.5 5 17.5H15C16.3708 17.5 17.5 16.3708 17.5 15V5C17.5 3.62919 16.3708 2.5 15 2.5H5ZM5 4.16667H15C15.4709 4.16667 15.8333 4.52914 15.8333 5V15C15.8333 15.4709 15.4709 15.8333 15 15.8333H5C4.52914 15.8333 4.16667 15.4709 4.16667 15V5C4.16667 4.52914 4.52914 4.16667 5 4.16667ZM5.58431 5.83333L8.86881 10.5273L5.75521 14.1667H6.86523L9.36686 11.237L11.4144 14.1667H14.6143L11.1263 9.1748L13.9779 5.83333H12.8857L10.6331 8.4668L8.79395 5.83333H5.58431ZM7.13867 6.6569H8.37728L13.0697 13.3431H11.8229L7.13867 6.6569Z" fill="black"/>
</g>
</svg>
