<svg width="124" height="124" viewBox="0 0 124 124" fill="none" xmlns="http://www.w3.org/2000/svg">
<g clip-path="url(#clip0_50_702)">
<path d="M61.9999 113.667C54.8527 113.667 48.136 112.31 41.8499 109.598C35.5638 106.885 30.0958 103.204 25.4458 98.5541C20.7958 93.9041 17.1145 88.4361 14.402 82.15C11.6895 75.8639 10.3333 69.1472 10.3333 62C10.3333 54.8528 11.6895 48.1361 14.402 41.85C17.1145 35.5639 20.7958 30.0958 25.4458 25.4458C30.0958 20.7958 35.5638 17.1146 41.8499 14.4021C48.136 11.6896 54.8527 10.3333 61.9999 10.3333C74.5721 10.3333 85.5728 14.2729 95.002 22.1521C104.431 30.0312 110.308 39.9125 112.633 51.7958H102.042C100.405 45.5097 97.4562 39.891 93.1937 34.9396C88.9312 29.9882 83.6999 26.2639 77.4999 23.7666V25.8333C77.4999 28.675 76.4881 31.1076 74.4645 33.1312C72.4409 35.1548 70.0083 36.1666 67.1666 36.1666H56.8333V46.5C56.8333 47.9639 56.3381 49.191 55.3478 50.1812C54.3576 51.1715 53.1305 51.6666 51.6666 51.6666H41.3333V62H51.6666V77.5H46.4999L21.6999 52.7C21.4416 54.25 21.2048 55.8 20.9895 57.35C20.7742 58.9 20.6666 60.45 20.6666 62C20.6666 73.2805 24.6277 82.968 32.5499 91.0625C40.4721 99.1569 50.2888 103.247 61.9999 103.333V113.667ZM109.017 111.083L92.4832 94.55C90.6749 95.5833 88.7374 96.4444 86.6707 97.1333C84.6041 97.8222 82.4082 98.1666 80.0833 98.1666C73.6249 98.1666 68.1353 95.9062 63.6145 91.3854C59.0937 86.8646 56.8333 81.375 56.8333 74.9166C56.8333 68.4583 59.0937 62.9687 63.6145 58.4479C68.1353 53.9271 73.6249 51.6666 80.0833 51.6666C86.5416 51.6666 92.0312 53.9271 96.552 58.4479C101.073 62.9687 103.333 68.4583 103.333 74.9166C103.333 77.2416 102.989 79.4375 102.3 81.5041C101.611 83.5708 100.75 85.5083 99.7166 87.3166L116.25 103.85L109.017 111.083ZM80.0833 87.8333C83.6999 87.8333 86.7569 86.5847 89.2541 84.0875C91.7513 81.5903 92.9999 78.5333 92.9999 74.9166C92.9999 71.3 91.7513 68.243 89.2541 65.7458C86.7569 63.2486 83.6999 62 80.0833 62C76.4666 62 73.4096 63.2486 70.9124 65.7458C68.4152 68.243 67.1666 71.3 67.1666 74.9166C67.1666 78.5333 68.4152 81.5903 70.9124 84.0875C73.4096 86.5847 76.4666 87.8333 80.0833 87.8333Z" fill="#1A1A1A"/>
</g>
<defs>
<clipPath id="clip0_50_702">
<rect width="124" height="124" fill="white"/>
</clipPath>
</defs>
</svg>
