<svg width="20" height="20" viewBox="0 0 20 20" fill="none" xmlns="http://www.w3.org/2000/svg">
<g id="icons8-whatsapp 1">
<path id="Vector" d="M10.0098 1.66667C5.42151 1.66667 1.68632 5.39865 1.68465 9.98698C1.68382 11.4536 2.06797 12.8855 2.79631 14.1471L1.66675 18.3333L6.0271 17.3031C7.24293 17.9664 8.61163 18.3146 10.005 18.3154H10.0082C14.5957 18.3154 18.3293 14.5826 18.3318 9.99512C18.3335 7.77095 17.4686 5.67978 15.8969 4.10645C14.3252 2.53395 12.2365 1.6675 10.0098 1.66667ZM10.0082 3.33333C11.7882 3.33417 13.461 4.02816 14.7185 5.28483C15.976 6.54316 16.6668 8.21516 16.6651 9.99349C16.6635 13.6635 13.6783 16.6488 10.0066 16.6488C8.89576 16.6479 7.79542 16.369 6.82625 15.8398L6.26473 15.5339L5.64461 15.6803L4.00399 16.0677L4.40438 14.5801L4.58504 13.9128L4.23999 13.3138C3.65832 12.3071 3.35049 11.1561 3.35132 9.98698C3.35299 6.31865 6.33905 3.33333 10.0082 3.33333ZM7.06388 6.14583C6.92472 6.14583 6.6997 6.19792 6.50887 6.40625C6.31804 6.61375 5.7797 7.11632 5.7797 8.13965C5.7797 9.16298 6.52515 10.1522 6.62931 10.2913C6.73265 10.4297 8.06821 12.596 10.1824 13.4294C11.939 14.1219 12.2958 13.9852 12.6775 13.9502C13.0592 13.916 13.9088 13.4481 14.0821 12.9622C14.2554 12.4764 14.2559 12.0585 14.2042 11.9727C14.1525 11.886 14.0138 11.8343 13.8054 11.7301C13.5979 11.626 12.5754 11.1239 12.3845 11.0547C12.1937 10.9855 12.0541 10.9505 11.9158 11.1589C11.7774 11.3672 11.3799 11.8343 11.2582 11.9727C11.1366 12.1118 11.0157 12.1305 10.8074 12.0264C10.599 11.9214 9.9292 11.7012 9.1342 10.9928C8.51586 10.442 8.09864 9.76237 7.97697 9.55404C7.85614 9.34654 7.96558 9.23257 8.06974 9.12923C8.16308 9.0359 8.27645 8.88632 8.38062 8.76465C8.48395 8.64298 8.51978 8.5563 8.58895 8.41797C8.65812 8.27964 8.62271 8.15755 8.57105 8.05339C8.51938 7.94922 8.11477 6.92208 7.92977 6.51042C7.77394 6.16458 7.60935 6.15655 7.46102 6.15072C7.34019 6.14572 7.20222 6.14583 7.06388 6.14583Z" fill="black"/>
</g>
</svg>
